<svg width="343" height="271" viewBox="0 0 343 271" fill="none" xmlns="http://www.w3.org/2000/svg">
<path d="M206.667 1.83373L340.792 130.682C341.491 131.333 342.046 132.111 342.425 132.972C342.805 133.833 343 134.758 343 135.693C343 136.627 342.805 137.553 342.425 138.413C342.046 139.274 341.491 140.053 340.792 140.703L206.667 269.552C205.232 270.586 203.457 271.088 201.668 270.965C199.879 270.843 198.196 270.105 196.927 268.887C195.659 267.668 194.891 266.051 194.764 264.333C194.637 262.614 195.159 260.909 196.235 259.53L317.507 142.851L7.71505 142.851C5.73882 142.851 3.84354 142.097 2.44613 140.754C1.04872 139.412 0.263666 137.591 0.263666 135.693C0.263666 133.794 1.04872 131.974 2.44613 130.631C3.84353 129.289 5.73882 128.534 7.71505 128.534L317.507 128.534L196.235 11.8552C195.159 10.4768 194.636 8.77163 194.764 7.05285C194.891 5.3341 195.659 3.71709 196.927 2.49868C198.196 1.28026 199.879 0.542228 201.668 0.420096C203.457 0.297934 205.232 0.799857 206.667 1.83373Z" fill="#070707"/>
</svg>
