<svg width="1000" height="1000" viewBox="0 0 1000 1000" fill="none" xmlns="http://www.w3.org/2000/svg">
<rect width="1000" height="1000" fill="#070707"/>
<path d="M609.717 403.135C602.402 371.578 584.534 349.53 556.112 336.991C540.229 330.095 522.57 326.646 503.135 326.646C465.936 326.646 435.319 340.753 411.286 368.966C387.462 396.97 375.55 439.185 375.55 495.61C375.55 552.454 388.507 592.684 414.421 616.299C440.335 639.914 469.802 651.722 502.821 651.722C535.214 651.722 561.755 642.422 582.444 623.822C603.134 605.014 615.882 580.458 620.688 550.155H513.793V473.04H706.268V721H642.318L632.601 663.32C614.001 685.264 597.282 700.729 582.444 709.715C556.948 725.389 525.601 733.226 488.401 733.226C427.169 733.226 377.013 712.014 337.933 669.59C297.181 626.957 276.805 568.65 276.805 494.67C276.805 419.854 297.39 359.875 338.56 314.734C379.729 269.594 434.17 247.023 501.881 247.023C560.605 247.023 607.731 261.966 643.259 291.851C678.995 321.526 699.476 358.621 704.7 403.135H609.717Z" fill="white"/>
</svg>
