<svg width="150" height="190" viewBox="0 0 150 190" fill="none" xmlns="http://www.w3.org/2000/svg">
<path d="M149.206 114.422L77.7778 188.776C77.4171 189.163 76.9854 189.471 76.5082 189.681C76.031 189.892 75.5182 190 75 190C74.4818 190 73.969 189.892 73.4918 189.681C73.0146 189.471 72.5829 189.163 72.2222 188.776L0.793655 114.422C0.220524 113.627 -0.057726 112.643 0.00998857 111.651C0.0777031 110.659 0.486835 109.726 1.16228 109.023C1.83772 108.32 2.73414 107.894 3.68695 107.823C4.63977 107.753 5.58503 108.043 6.34921 108.639L71.0317 175.867V4.13077C71.0317 3.03522 71.4498 1.98454 72.194 1.20987C72.9382 0.435205 73.9476 0 75 0C76.0524 0 77.0618 0.435205 77.806 1.20987C78.5502 1.98454 78.9683 3.03522 78.9683 4.13077V175.867L143.651 108.639C144.415 108.043 145.36 107.753 146.313 107.823C147.266 107.894 148.162 108.32 148.838 109.023C149.513 109.726 149.922 110.659 149.99 111.651C150.058 112.643 149.779 113.627 149.206 114.422Z" fill="#070707"/>
</svg>
